<svg width="745" height="412" viewBox="0 0 745 412" fill="none" xmlns="http://www.w3.org/2000/svg">
<g filter="url(#filter0_f_4_29)">
<path d="M611.722 98.9056C612.89 96.1633 616.061 94.8873 618.804 96.0555L646.117 107.689C648.859 108.857 650.136 112.027 648.967 114.77L563.288 315.864C562.12 318.606 558.949 319.882 556.206 318.714L528.893 307.08C526.151 305.912 524.874 302.742 526.043 299.999L611.722 98.9056Z" fill="#0EF893" fill-opacity="0.5"/>
<path d="M417.399 115.097C418.567 112.354 421.738 111.078 424.481 112.247L451.794 123.88C454.536 125.049 455.813 128.219 454.644 130.961L369.751 330.21C368.582 332.952 365.412 334.228 362.669 333.06L335.356 321.426C332.613 320.258 331.337 317.088 332.506 314.346L417.399 115.097Z" fill="#0EF893" fill-opacity="0.5"/>
<path d="M699.353 22.2854C700.574 21.9121 701.888 21.9838 703.062 22.4879L723.636 31.3258C728.255 33.3099 727.892 39.9746 723.084 41.4454L460.619 121.75C459.439 122.111 458.17 122.057 457.025 121.596L435.548 112.962C430.825 111.063 431.115 104.282 435.984 102.793L699.353 22.2854Z" fill="#0EF893" fill-opacity="0.5"/>
<path d="M594.095 24.984C595.316 24.6106 596.63 24.6824 597.803 25.1864L618.377 34.0243C622.996 36.0084 622.633 42.6731 617.826 44.1439L355.36 124.448C354.18 124.809 352.912 124.755 351.767 124.295L330.29 115.661C325.566 113.762 325.857 106.98 330.725 105.492L594.095 24.984Z" fill="#0EF893" fill-opacity="0.5"/>
<path d="M667.935 12.138C669.006 11.801 670.156 11.8066 671.224 12.1539L680.075 15.0324C685.09 16.6632 685.031 23.7776 679.989 25.3244L640.479 37.447C639.276 37.8161 637.982 37.7534 636.82 37.2698L629.488 34.2172C624.839 32.2814 625.14 25.5975 629.944 24.0865L667.935 12.138Z" fill="#0EF893" fill-opacity="0.5"/>
<path d="M312.141 117.795C313.309 115.053 316.48 113.777 319.222 114.945L346.535 126.579C349.278 127.747 350.554 130.917 349.386 133.659L263.707 334.753C262.538 337.495 259.368 338.772 256.625 337.603L229.312 325.97C226.569 324.801 225.293 321.631 226.461 318.889L312.141 117.795Z" fill="#0EF893" fill-opacity="0.5"/>
<path d="M38.8454 252.722C40.0138 249.979 43.1843 248.703 45.927 249.871L73.2401 261.505C75.9828 262.673 77.259 265.843 76.0906 268.586L47.792 335.004C46.6236 337.746 43.453 339.022 40.7104 337.854L13.3972 326.22C10.6546 325.052 9.37837 321.882 10.5468 319.14L38.8454 252.722Z" fill="#0EF893" fill-opacity="0.5"/>
<path d="M469.766 213.432C470.934 210.69 474.105 209.414 476.848 210.582L504.161 222.215C506.903 223.384 508.18 226.554 507.011 229.296L463.643 331.084C462.474 333.826 459.304 335.102 456.561 333.934L429.248 322.301C426.505 321.132 425.229 317.962 426.397 315.22L469.766 213.432Z" fill="#0EF893" fill-opacity="0.5"/>
<path d="M556.314 280.139C559.296 280.139 561.712 282.555 561.712 285.536V315.219C561.712 318.2 559.296 320.616 556.314 320.616H448.357C445.376 320.616 442.959 318.2 442.959 315.219V285.536C442.959 282.555 445.376 280.139 448.357 280.139H556.314Z" fill="#0EF893" fill-opacity="0.5"/>
<path d="M456.454 293.631C459.435 293.631 461.852 296.048 461.852 299.028V328.712C461.852 331.693 459.435 334.109 456.454 334.109H364.69C361.709 334.109 359.292 331.693 359.292 328.712V299.028C359.292 296.048 361.709 293.631 364.69 293.631H456.454Z" fill="#0EF893" fill-opacity="0.5"/>
<path d="M353.894 280.139C356.876 280.139 359.292 282.555 359.292 285.536V315.219C359.292 318.2 356.876 320.616 353.894 320.616H251.335C248.354 320.616 245.937 318.2 245.937 315.219V285.536C245.937 282.555 248.354 280.139 251.335 280.139H353.894Z" fill="#0EF893" fill-opacity="0.5"/>
<path d="M256.733 299.028C259.714 299.028 262.131 301.445 262.131 304.425V334.109C262.131 337.09 259.714 339.506 256.733 339.506H46.2163C43.2351 339.506 40.8184 337.09 40.8184 334.109V304.425C40.8184 301.445 43.2351 299.028 46.2163 299.028H256.733Z" fill="#0EF893" fill-opacity="0.5"/>
<path d="M164.716 261.009C167.697 261.009 170.114 263.425 170.114 266.406V269.104C170.114 272.085 167.697 274.501 164.716 274.501H121.533C118.552 274.501 116.135 272.085 116.135 269.104V266.406C116.135 263.425 118.552 261.009 121.533 261.009H164.716Z" fill="#0EF893" fill-opacity="0.5"/>
<path d="M170.482 262.849C172.217 265.272 171.924 268.954 169.826 271.073L169.2 271.705C167.103 273.824 163.996 273.576 162.26 271.152L146.078 248.552C144.343 246.128 144.637 242.446 146.734 240.328L147.36 239.695C149.457 237.577 152.564 237.824 154.3 240.248L170.482 262.849Z" fill="#0EF893" fill-opacity="0.5"/>
<path d="M170.482 224.472C173.126 223.096 176.106 224.248 177.137 227.045L177.732 228.659C178.763 231.455 177.455 234.838 174.81 236.213L151.985 248.084C149.341 249.46 146.361 248.308 145.33 245.511L144.735 243.897C143.704 241.1 145.012 237.718 147.657 236.343L170.482 224.472Z" fill="#0EF893" fill-opacity="0.5"/>
<path d="M383.618 353.113C385.676 350.928 389.121 350.842 391.286 352.921L413.037 373.81C415.172 375.861 415.257 379.248 413.227 381.403L397.964 397.605C395.906 399.79 392.461 399.876 390.296 397.797L368.545 376.908C366.41 374.857 366.325 371.47 368.355 369.315L383.618 353.113Z" fill="#0EF893" fill-opacity="0.5"/>
<path d="M415.083 351.569C417.141 349.384 420.587 349.298 422.752 351.377L444.502 372.266C446.637 374.317 446.722 377.704 444.692 379.859L429.43 396.061C427.371 398.245 423.926 398.332 421.761 396.253L400.01 375.364C397.875 373.313 397.791 369.926 399.82 367.771L415.083 351.569Z" fill="#0EF893" fill-opacity="0.5"/>
</g>
<g filter="url(#filter1_f_4_29)">
<path d="M619.819 101.604C620.987 98.8619 624.158 97.5858 626.9 98.7541L654.214 110.388C656.956 111.556 658.232 114.726 657.064 117.468L571.385 318.562C570.216 321.304 567.046 322.58 564.303 321.412L536.99 309.778C534.247 308.61 532.971 305.44 534.14 302.698L619.819 101.604Z" fill="#5AB1BB" fill-opacity="0.5"/>
<path d="M425.496 117.795C426.664 115.053 429.835 113.777 432.577 114.945L459.891 126.579C462.633 127.747 463.909 130.917 462.741 133.659L377.848 332.908C376.679 335.651 373.509 336.927 370.766 335.759L343.453 324.125C340.71 322.957 339.434 319.787 340.602 317.044L425.496 117.795Z" fill="#5AB1BB" fill-opacity="0.5"/>
<path d="M707.45 24.984C708.671 24.6106 709.985 24.6824 711.159 25.1864L731.733 34.0243C736.351 36.0084 735.988 42.6731 731.181 44.1439L468.715 124.448C467.535 124.809 466.267 124.755 465.122 124.295L443.645 115.661C438.922 113.762 439.212 106.98 444.081 105.492L707.45 24.984Z" fill="#5AB1BB" fill-opacity="0.5"/>
<path d="M602.191 27.6825C603.413 27.3092 604.727 27.3809 605.9 27.885L626.474 36.7228C631.093 38.707 630.73 45.3717 625.923 46.8424L363.457 127.147C362.277 127.508 361.009 127.454 359.864 126.993L338.387 118.359C333.663 116.46 333.954 109.679 338.822 108.19L602.191 27.6825Z" fill="#5AB1BB" fill-opacity="0.5"/>
<path d="M676.031 14.8365C677.103 14.4996 678.253 14.5052 679.321 14.8525L688.172 17.7309C693.187 19.3618 693.128 26.4761 688.086 28.0229L648.575 40.1456C647.372 40.5146 646.078 40.4519 644.917 39.9683L637.585 36.9157C632.936 34.9799 633.236 28.296 638.041 26.785L676.031 14.8365Z" fill="#5AB1BB" fill-opacity="0.5"/>
<path d="M320.237 120.494C321.406 117.752 324.576 116.476 327.319 117.644L354.632 129.277C357.375 130.446 358.651 133.616 357.483 136.358L271.803 337.452C270.635 340.194 267.464 341.47 264.722 340.302L237.409 328.668C234.666 327.5 233.39 324.33 234.558 321.588L320.237 120.494Z" fill="#5AB1BB" fill-opacity="0.5"/>
<path d="M46.9422 255.42C48.1106 252.678 51.2811 251.402 54.0238 252.57L81.3369 264.204C84.0796 265.372 85.3558 268.542 84.1874 271.284L55.8888 337.703C54.7204 340.445 51.5498 341.721 48.8072 340.553L21.494 328.919C18.7514 327.751 17.4752 324.581 18.6436 321.838L46.9422 255.42Z" fill="#5AB1BB" fill-opacity="0.5"/>
<path d="M477.863 216.13C479.031 213.388 482.202 212.112 484.944 213.28L512.257 224.914C515 226.082 516.276 229.252 515.108 231.994L471.739 333.783C470.571 336.525 467.4 337.801 464.658 336.633L437.345 324.999C434.602 323.831 433.326 320.661 434.494 317.919L477.863 216.13Z" fill="#5AB1BB" fill-opacity="0.5"/>
<path d="M564.411 282.837C567.392 282.837 569.809 285.253 569.809 288.234V317.918C569.809 320.899 567.392 323.315 564.411 323.315H456.454C453.473 323.315 451.056 320.899 451.056 317.918V288.234C451.056 285.253 453.473 282.837 456.454 282.837H564.411Z" fill="#5AB1BB" fill-opacity="0.5"/>
<path d="M464.551 296.33C467.532 296.33 469.949 298.746 469.949 301.727V331.411C469.949 334.391 467.532 336.808 464.551 336.808H372.787C369.806 336.808 367.389 334.391 367.389 331.411V301.727C367.389 298.746 369.806 296.33 372.787 296.33H464.551Z" fill="#5AB1BB" fill-opacity="0.5"/>
<path d="M361.991 282.837C364.972 282.837 367.389 285.253 367.389 288.234V317.918C367.389 320.899 364.972 323.315 361.991 323.315H259.432C256.451 323.315 254.034 320.899 254.034 317.918V288.234C254.034 285.253 256.451 282.837 259.432 282.837H361.991Z" fill="#5AB1BB" fill-opacity="0.5"/>
<path d="M264.83 301.727C267.811 301.727 270.228 304.143 270.228 307.124V336.808C270.228 339.788 267.811 342.205 264.83 342.205H54.3131C51.3319 342.205 48.9152 339.788 48.9152 336.808V307.124C48.9152 304.143 51.3319 301.727 54.3131 301.727H264.83Z" fill="#5AB1BB" fill-opacity="0.5"/>
<path d="M170.367 258.55C173.348 258.55 175.765 260.967 175.765 263.947V266.646C175.765 269.627 173.348 272.043 170.367 272.043H127.184C124.203 272.043 121.786 269.627 121.786 266.646V263.947C121.786 260.967 124.203 258.55 127.184 258.55H170.367Z" fill="#5AB1BB" fill-opacity="0.5"/>
<path d="M175.181 261.503C176.916 263.927 175.858 268.725 173.761 270.843C171.664 272.961 168.001 270.357 166.652 269.599L154.895 252.256C153.16 249.832 153.454 246.15 155.551 244.032V239.915C157.648 237.796 161.381 241.528 163.117 243.952L175.181 261.503Z" fill="#5AB1BB" fill-opacity="0.5"/>
<path d="M175.329 222.209C177.973 220.834 180.953 221.986 181.984 224.783L182.579 226.397C183.61 229.193 182.302 232.576 179.658 233.951L155.551 244.032C152.906 245.407 151.208 246.045 150.177 243.249L149.582 241.635C148.551 238.838 149.859 235.456 152.504 234.08L175.329 222.209Z" fill="#5AB1BB" fill-opacity="0.5"/>
<path d="M391.715 355.812C393.773 353.627 397.218 353.541 399.383 355.62L421.134 376.509C423.269 378.559 423.354 381.947 421.324 384.101L406.061 400.303C404.003 402.488 400.557 402.574 398.392 400.495L376.642 379.607C374.507 377.556 374.422 374.169 376.452 372.014L391.715 355.812Z" fill="#5AB1BB" fill-opacity="0.5"/>
<path d="M423.18 354.268C425.238 352.083 428.684 351.997 430.848 354.076L452.599 374.965C454.734 377.015 454.819 380.402 452.789 382.557L437.526 398.759C435.468 400.944 432.023 401.03 429.858 398.951L408.107 378.062C405.972 376.012 405.887 372.624 407.917 370.47L423.18 354.268Z" fill="#5AB1BB" fill-opacity="0.5"/>
</g>
<g filter="url(#filter2_f_4_29)">
<path d="M619.819 101.604C620.987 98.8619 624.158 97.5858 626.9 98.7541L654.214 110.388C656.956 111.556 658.232 114.726 657.064 117.468L571.385 318.562C570.216 321.304 567.046 322.58 564.303 321.412L536.99 309.778C534.247 308.61 532.971 305.44 534.14 302.698L619.819 101.604Z" fill="#5AB1BB"/>
<path d="M425.496 117.795C426.664 115.053 429.835 113.777 432.577 114.945L459.891 126.579C462.633 127.747 463.909 130.917 462.741 133.659L377.848 332.908C376.679 335.651 373.509 336.927 370.766 335.759L343.453 324.125C340.71 322.957 339.434 319.787 340.602 317.044L425.496 117.795Z" fill="#5AB1BB"/>
<path d="M707.45 24.984C708.671 24.6106 709.985 24.6824 711.159 25.1864L731.733 34.0243C736.351 36.0084 735.988 42.6731 731.181 44.1439L468.715 124.448C467.535 124.809 466.267 124.755 465.122 124.295L443.645 115.661C438.922 113.762 439.212 106.98 444.081 105.492L707.45 24.984Z" fill="#5AB1BB"/>
<path d="M602.191 27.6825C603.413 27.3092 604.727 27.3809 605.9 27.885L626.474 36.7228C631.093 38.707 630.73 45.3717 625.923 46.8424L363.457 127.147C362.277 127.508 361.009 127.454 359.864 126.993L338.387 118.359C333.663 116.46 333.954 109.679 338.822 108.19L602.191 27.6825Z" fill="#5AB1BB"/>
<path d="M676.031 14.8365C677.103 14.4996 678.253 14.5052 679.321 14.8525L688.172 17.7309C693.187 19.3618 693.128 26.4761 688.086 28.0229L648.575 40.1456C647.372 40.5146 646.078 40.4519 644.917 39.9683L637.585 36.9157C632.936 34.9799 633.236 28.296 638.041 26.785L676.031 14.8365Z" fill="#5AB1BB"/>
<path d="M320.237 120.494C321.406 117.752 324.576 116.476 327.319 117.644L354.632 129.277C357.375 130.446 358.651 133.616 357.483 136.358L271.803 337.452C270.635 340.194 267.464 341.47 264.722 340.302L237.409 328.668C234.666 327.5 233.39 324.33 234.558 321.588L320.237 120.494Z" fill="#5AB1BB"/>
<path d="M46.9422 255.42C48.1106 252.678 51.2811 251.402 54.0238 252.57L81.3369 264.204C84.0796 265.372 85.3558 268.542 84.1874 271.284L55.8888 337.703C54.7204 340.445 51.5498 341.721 48.8072 340.553L21.494 328.919C18.7514 327.751 17.4752 324.581 18.6436 321.838L46.9422 255.42Z" fill="#5AB1BB"/>
<path d="M477.863 216.13C479.031 213.388 482.202 212.112 484.944 213.28L512.257 224.914C515 226.082 516.276 229.252 515.108 231.994L471.739 333.783C470.571 336.525 467.4 337.801 464.658 336.633L437.345 324.999C434.602 323.831 433.326 320.661 434.494 317.919L477.863 216.13Z" fill="#5AB1BB"/>
<path d="M564.411 282.837C567.392 282.837 569.809 285.253 569.809 288.234V317.918C569.809 320.899 567.392 323.315 564.411 323.315H456.454C453.473 323.315 451.056 320.899 451.056 317.918V288.234C451.056 285.253 453.473 282.837 456.454 282.837H564.411Z" fill="#5AB1BB"/>
<path d="M464.551 296.33C467.532 296.33 469.949 298.746 469.949 301.727V331.411C469.949 334.391 467.532 336.808 464.551 336.808H372.787C369.806 336.808 367.389 334.391 367.389 331.411V301.727C367.389 298.746 369.806 296.33 372.787 296.33H464.551Z" fill="#5AB1BB"/>
<path d="M361.991 282.837C364.972 282.837 367.389 285.253 367.389 288.234V317.918C367.389 320.899 364.972 323.315 361.991 323.315H259.432C256.451 323.315 254.034 320.899 254.034 317.918V288.234C254.034 285.253 256.451 282.837 259.432 282.837H361.991Z" fill="#5AB1BB"/>
<path d="M264.83 301.727C267.811 301.727 270.228 304.143 270.228 307.124V336.808C270.228 339.788 267.811 342.205 264.83 342.205H54.3131C51.3319 342.205 48.9152 339.788 48.9152 336.808V307.124C48.9152 304.143 51.3319 301.727 54.3131 301.727H264.83Z" fill="#5AB1BB"/>
<path d="M170.367 258.55C173.348 258.55 175.765 260.967 175.765 263.947V266.646C175.765 269.627 173.348 272.043 170.367 272.043H127.184C124.203 272.043 121.786 269.627 121.786 266.646V263.947C121.786 260.967 124.203 258.55 127.184 258.55H170.367Z" fill="#5AB1BB"/>
<path d="M175.181 261.503C176.916 263.927 175.858 268.725 173.761 270.843C171.664 272.961 168.001 270.357 166.652 269.599L154.895 252.256C153.16 249.832 153.454 246.15 155.551 244.032V239.915C157.648 237.796 161.381 241.528 163.117 243.952L175.181 261.503Z" fill="#5AB1BB"/>
<path d="M175.329 222.209C177.973 220.834 180.953 221.986 181.984 224.783L182.579 226.397C183.61 229.193 182.302 232.576 179.658 233.951L155.551 244.032C152.906 245.407 151.208 246.045 150.177 243.249L149.582 241.635C148.551 238.838 149.859 235.456 152.504 234.08L175.329 222.209Z" fill="#5AB1BB"/>
<path d="M391.715 355.812C393.773 353.627 397.218 353.541 399.383 355.62L421.134 376.509C423.269 378.559 423.354 381.947 421.324 384.101L406.061 400.303C404.003 402.488 400.557 402.574 398.392 400.495L376.642 379.607C374.507 377.556 374.422 374.169 376.452 372.014L391.715 355.812Z" fill="#5AB1BB"/>
<path d="M423.18 354.268C425.238 352.083 428.684 351.997 430.848 354.076L452.599 374.965C454.734 377.015 454.819 380.402 452.789 382.557L437.526 398.759C435.468 400.944 432.023 401.03 429.858 398.951L408.107 378.062C405.972 376.012 405.887 372.624 407.917 370.47L423.18 354.268Z" fill="#5AB1BB"/>
</g>
<g filter="url(#filter3_f_4_29)">
<path d="M611.722 93.5085C612.89 90.7663 616.061 89.4903 618.804 90.6585L646.117 102.292C648.859 103.46 650.136 106.63 648.967 109.373L563.288 310.467C562.12 313.209 558.949 314.485 556.206 313.317L528.893 301.683C526.151 300.515 524.874 297.345 526.043 294.602L611.722 93.5085Z" fill="#839E68"/>
<path d="M417.399 109.7C418.567 106.957 421.738 105.681 424.481 106.85L451.794 118.483C454.536 119.652 455.813 122.822 454.644 125.564L369.751 324.813C368.582 327.555 365.412 328.831 362.669 327.663L335.356 316.029C332.613 314.861 331.337 311.691 332.506 308.949L417.399 109.7Z" fill="#839E68"/>
<path d="M699.353 16.8884C700.574 16.515 701.888 16.5868 703.062 17.0909L723.636 25.9287C728.255 27.9129 727.892 34.5775 723.084 36.0483L460.619 116.353C459.439 116.714 458.17 116.66 457.025 116.199L435.548 107.565C430.825 105.666 431.115 98.8845 435.984 97.3963L699.353 16.8884Z" fill="#839E68"/>
<path d="M594.095 19.5869C595.316 19.2136 596.63 19.2853 597.803 19.7894L618.377 28.6273C622.996 30.6114 622.633 37.2761 617.826 38.7469L355.36 119.051C354.18 119.412 352.912 119.358 351.767 118.898L330.29 110.263C325.566 108.365 325.857 101.583 330.725 100.095L594.095 19.5869Z" fill="#839E68"/>
<path d="M667.935 6.74095C669.006 6.404 670.156 6.40957 671.224 6.7569L680.075 9.63536C685.09 11.2662 685.031 18.3805 679.989 19.9274L640.479 32.05C639.276 32.4191 637.982 32.3564 636.82 31.8727L629.488 28.8201C624.839 26.8844 625.14 20.2004 629.944 18.6895L667.935 6.74095Z" fill="#839E68"/>
<path d="M312.141 112.398C313.309 109.656 316.48 108.38 319.222 109.548L346.535 121.182C349.278 122.35 350.554 125.52 349.386 128.262L263.707 329.356C262.538 332.098 259.368 333.374 256.625 332.206L229.312 320.573C226.569 319.404 225.293 316.234 226.461 313.492L312.141 112.398Z" fill="#839E68"/>
<path d="M38.8454 247.324C40.0138 244.582 43.1843 243.306 45.927 244.474L73.2401 256.108C75.9828 257.276 77.259 260.446 76.0906 263.189L47.792 329.607C46.6236 332.349 43.453 333.625 40.7104 332.457L13.3972 320.823C10.6546 319.655 9.37837 316.485 10.5468 313.743L38.8454 247.324Z" fill="#839E68"/>
<path d="M469.766 208.035C470.934 205.292 474.105 204.016 476.848 205.185L504.161 216.818C506.903 217.987 508.18 221.157 507.011 223.899L463.643 325.687C462.474 328.429 459.304 329.705 456.561 328.537L429.248 316.903C426.505 315.735 425.229 312.565 426.397 309.823L469.766 208.035Z" fill="#839E68"/>
<path d="M556.314 274.742C559.296 274.742 561.712 277.158 561.712 280.139V309.822C561.712 312.803 559.296 315.219 556.314 315.219H448.357C445.376 315.219 442.959 312.803 442.959 309.822V280.139C442.959 277.158 445.376 274.742 448.357 274.742H556.314Z" fill="#839E68"/>
<path d="M456.454 288.234C459.435 288.234 461.852 290.65 461.852 293.631V323.315C461.852 326.296 459.435 328.712 456.454 328.712H364.69C361.709 328.712 359.292 326.296 359.292 323.315V293.631C359.292 290.65 361.709 288.234 364.69 288.234H456.454Z" fill="#839E68"/>
<path d="M353.894 274.742C356.876 274.742 359.292 277.158 359.292 280.139V309.822C359.292 312.803 356.876 315.219 353.894 315.219H251.335C248.354 315.219 245.937 312.803 245.937 309.822V280.139C245.937 277.158 248.354 274.742 251.335 274.742H353.894Z" fill="#839E68"/>
<path d="M256.733 293.631C259.714 293.631 262.131 296.048 262.131 299.028V328.712C262.131 331.693 259.714 334.109 256.733 334.109H46.2163C43.2351 334.109 40.8184 331.693 40.8184 328.712V299.028C40.8184 296.048 43.2351 293.631 46.2163 293.631H256.733Z" fill="#839E68"/>
<path d="M164.716 255.612C167.697 255.612 170.114 258.028 170.114 261.009V263.707C170.114 266.688 167.697 269.104 164.716 269.104H121.533C118.552 269.104 116.135 266.688 116.135 263.707V261.009C116.135 258.028 118.552 255.612 121.533 255.612H164.716Z" fill="#839E68"/>
<path d="M170.482 257.452C172.217 259.875 171.924 263.557 169.826 265.676L169.2 266.308C167.103 268.427 163.996 268.179 162.26 265.755L146.078 243.155C144.343 240.731 144.637 237.049 146.734 234.931L147.36 234.298C149.457 232.18 152.564 232.427 154.3 234.851L170.482 257.452Z" fill="#839E68"/>
<path d="M170.482 219.074C173.126 217.699 176.106 218.851 177.137 221.648L177.732 223.262C178.763 226.058 177.455 229.441 174.81 230.816L151.985 242.687C149.341 244.063 146.361 242.91 145.33 240.114L144.735 238.5C143.704 235.703 145.012 232.321 147.657 230.945L170.482 219.074Z" fill="#839E68"/>
<path d="M383.618 347.716C385.676 345.531 389.121 345.445 391.286 347.524L413.037 368.413C415.172 370.464 415.257 373.851 413.227 376.006L397.964 392.208C395.906 394.393 392.461 394.479 390.296 392.4L368.545 371.511C366.41 369.46 366.325 366.073 368.355 363.918L383.618 347.716Z" fill="#839E68"/>
<path d="M415.083 346.172C417.141 343.987 420.587 343.901 422.752 345.98L444.502 366.869C446.637 368.919 446.722 372.307 444.692 374.462L429.43 390.664C427.371 392.848 423.926 392.935 421.761 390.856L400.01 369.967C397.875 367.916 397.791 364.529 399.82 362.374L415.083 346.172Z" fill="#839E68"/>
</g>
<path d="M602.609 87.0163C603.777 84.274 606.947 82.998 609.69 84.1662L637.003 95.7999C639.746 96.9681 641.022 100.138 639.854 102.88L554.174 303.974C553.006 306.717 549.836 307.993 547.093 306.824L519.78 295.191C517.037 294.022 515.761 290.852 516.929 288.11L602.609 87.0163Z" fill="#D9D9D9"/>
<path d="M408.285 103.207C409.454 100.465 412.624 99.1892 415.367 100.357L442.68 111.991C445.423 113.159 446.699 116.329 445.531 119.072L360.637 318.321C359.469 321.063 356.298 322.339 353.556 321.171L326.243 309.537C323.5 308.369 322.224 305.199 323.392 302.456L408.285 103.207Z" fill="#D9D9D9"/>
<path d="M690.239 10.3961C691.461 10.0228 692.775 10.0945 693.948 10.5986L714.522 19.4365C719.141 21.4206 718.778 28.0853 713.971 29.5561L451.505 109.86C450.325 110.221 449.057 110.167 447.912 109.707L426.435 101.073C421.711 99.1738 422.002 92.3923 426.87 90.9041L690.239 10.3961Z" fill="#D9D9D9"/>
<path d="M584.981 13.0947C586.202 12.7213 587.517 12.7931 588.69 13.2971L609.264 22.135C613.883 24.1191 613.52 30.7838 608.713 32.2546L346.247 112.559C345.067 112.92 343.799 112.866 342.654 112.406L321.176 103.771C316.453 101.872 316.743 95.0908 321.612 93.6026L584.981 13.0947Z" fill="#D9D9D9"/>
<path d="M658.821 0.248699C659.893 -0.0882593 661.042 -0.0826852 662.11 0.264643L670.962 3.1431C675.977 4.77393 675.917 11.8883 670.876 13.4351L631.365 25.5577C630.162 25.9268 628.868 25.8641 627.706 25.3804L620.375 22.3279C615.726 20.3921 616.026 13.7082 620.83 12.1972L658.821 0.248699Z" fill="#D9D9D9"/>
<path d="M303.027 105.906C304.196 103.164 307.366 101.888 310.109 103.056L337.422 114.69C340.165 115.858 341.441 119.028 340.272 121.77L254.593 322.864C253.425 325.606 250.254 326.882 247.511 325.714L220.198 314.08C217.456 312.912 216.179 309.742 217.348 307L303.027 105.906Z" fill="#D9D9D9"/>
<path d="M29.7319 240.832C30.9003 238.09 34.0708 236.814 36.8134 237.982L64.1266 249.616C66.8693 250.784 68.1455 253.954 66.9771 256.696L38.6784 323.115C37.51 325.857 34.3395 327.133 31.5969 325.965L4.28371 314.331C1.54105 313.163 0.264846 309.993 1.43323 307.251L29.7319 240.832Z" fill="#D9D9D9"/>
<path d="M460.652 201.542C461.821 198.8 464.991 197.524 467.734 198.692L495.047 210.326C497.79 211.494 499.066 214.664 497.898 217.407L454.529 319.195C453.361 321.937 450.19 323.213 447.447 322.045L420.134 310.411C417.392 309.243 416.115 306.073 417.284 303.331L460.652 201.542Z" fill="#D9D9D9"/>
<path d="M547.201 268.249C550.182 268.249 552.599 270.666 552.599 273.646V303.33C552.599 306.311 550.182 308.727 547.201 308.727H439.244C436.262 308.727 433.846 306.311 433.846 303.33V273.646C433.846 270.666 436.262 268.249 439.244 268.249H547.201Z" fill="#D9D9D9"/>
<path d="M447.34 281.742C450.322 281.742 452.738 284.158 452.738 287.139V316.823C452.738 319.803 450.322 322.22 447.34 322.22H355.577C352.596 322.22 350.179 319.803 350.179 316.823V287.139C350.179 284.158 352.596 281.742 355.577 281.742H447.34Z" fill="#D9D9D9"/>
<path d="M344.781 268.249C347.762 268.249 350.179 270.666 350.179 273.646V303.33C350.179 306.311 347.762 308.727 344.781 308.727H242.222C239.24 308.727 236.824 306.311 236.824 303.33V273.646C236.824 270.666 239.24 268.249 242.222 268.249H344.781Z" fill="#D9D9D9"/>
<path d="M247.619 287.139C250.601 287.139 253.017 289.555 253.017 292.536V322.22C253.017 325.2 250.601 327.617 247.619 327.617H37.1027C34.1216 327.617 31.7049 325.2 31.7049 322.22V292.536C31.7049 289.555 34.1216 287.139 37.1027 287.139H247.619Z" fill="#D9D9D9"/>
<path d="M158.555 252.058C161.536 252.058 163.953 254.474 163.953 257.455V260.154C163.953 263.134 161.536 265.551 158.555 265.551H115.372C112.391 265.551 109.974 263.134 109.974 260.154V257.455C109.974 254.474 112.391 252.058 115.372 252.058H158.555Z" fill="#D9D9D9"/>
<path d="M163.37 253.755C165.105 256.179 164.812 259.861 162.715 261.979L162.088 262.612C159.991 264.73 156.884 264.483 155.149 262.059L138.967 239.458C137.231 237.035 137.525 233.353 139.622 231.234L140.249 230.602C142.346 228.483 145.453 228.731 147.188 231.154L163.37 253.755Z" fill="#D9D9D9"/>
<path d="M165.697 216.769C168.342 215.394 171.322 216.546 172.353 219.343L172.948 220.956C173.979 223.753 172.671 227.135 170.026 228.511L147.201 240.382C144.556 241.757 141.576 240.605 140.545 237.809L139.95 236.195C138.919 233.398 140.227 230.016 142.872 228.64L165.697 216.769Z" fill="#D9D9D9"/>
<path d="M374.504 341.224C376.562 339.039 380.008 338.953 382.173 341.032L403.923 361.921C406.058 363.971 406.143 367.359 404.113 369.514L388.851 385.716C386.793 387.9 383.347 387.987 381.182 385.907L359.432 365.019C357.297 362.968 357.212 359.581 359.242 357.426L374.504 341.224Z" fill="#D9D9D9"/>
<path d="M405.969 339.68C408.028 337.495 411.473 337.409 413.638 339.488L435.389 360.377C437.524 362.427 437.608 365.815 435.579 367.969L420.316 384.171C418.258 386.356 414.812 386.442 412.647 384.363L390.897 363.474C388.762 361.424 388.677 358.036 390.707 355.882L405.969 339.68Z" fill="#D9D9D9"/>
<defs>
<filter id="filter0_f_4_29" x="0.113525" y="1.88931" width="736.79" height="407.412" filterUnits="userSpaceOnUse" color-interpolation-filters="sRGB">
<feFlood flood-opacity="0" result="BackgroundImageFix"/>
<feBlend mode="normal" in="SourceGraphic" in2="BackgroundImageFix" result="shape"/>
<feGaussianBlur stdDeviation="5" result="effect1_foregroundBlur_4_29"/>
</filter>
<filter id="filter1_f_4_29" x="8.21033" y="4.58784" width="736.79" height="407.412" filterUnits="userSpaceOnUse" color-interpolation-filters="sRGB">
<feFlood flood-opacity="0" result="BackgroundImageFix"/>
<feBlend mode="normal" in="SourceGraphic" in2="BackgroundImageFix" result="shape"/>
<feGaussianBlur stdDeviation="5" result="effect1_foregroundBlur_4_29"/>
</filter>
<filter id="filter2_f_4_29" x="16.2103" y="12.5878" width="720.79" height="391.412" filterUnits="userSpaceOnUse" color-interpolation-filters="sRGB">
<feFlood flood-opacity="0" result="BackgroundImageFix"/>
<feBlend mode="normal" in="SourceGraphic" in2="BackgroundImageFix" result="shape"/>
<feGaussianBlur stdDeviation="1" result="effect1_foregroundBlur_4_29"/>
</filter>
<filter id="filter3_f_4_29" x="8.11353" y="4.49226" width="720.79" height="391.412" filterUnits="userSpaceOnUse" color-interpolation-filters="sRGB">
<feFlood flood-opacity="0" result="BackgroundImageFix"/>
<feBlend mode="normal" in="SourceGraphic" in2="BackgroundImageFix" result="shape"/>
<feGaussianBlur stdDeviation="1" result="effect1_foregroundBlur_4_29"/>
</filter>
</defs>
</svg>
