<svg width="289" height="165" viewBox="0 0 289 165" fill="none" xmlns="http://www.w3.org/2000/svg">
<g filter="url(#filter0_f_4_29)">
<path d="M233.283 42.6517C233.716 41.6355 234.891 41.1627 235.907 41.5956L246.027 45.9067C247.043 46.3396 247.516 47.5143 247.083 48.5305L215.337 123.05C214.904 124.067 213.73 124.539 212.713 124.107L202.593 119.795C201.577 119.363 201.104 118.188 201.537 117.172L233.283 42.6517Z" fill="#0EF893" fill-opacity="0.5"/>
<path d="M161.283 48.6517C161.716 47.6355 162.891 47.1627 163.907 47.5956L174.027 51.9067C175.043 52.3396 175.516 53.5143 175.083 54.5305L143.628 128.367C143.196 129.383 142.021 129.856 141.005 129.423L130.885 125.112C129.868 124.679 129.396 123.504 129.828 122.488L161.283 48.6517Z" fill="#0EF893" fill-opacity="0.5"/>
<path d="M265.752 14.2584C266.204 14.12 266.691 14.1466 267.126 14.3334L274.749 17.6085C276.46 18.3437 276.326 20.8135 274.545 21.3585L177.296 51.1171C176.859 51.2509 176.389 51.2309 175.965 51.0603L168.007 47.8606C166.257 47.157 166.365 44.6439 168.169 44.0924L265.752 14.2584Z" fill="#0EF893" fill-opacity="0.5"/>
<path d="M226.752 15.2584C227.204 15.12 227.691 15.1466 228.126 15.3334L235.749 18.6085C237.46 19.3437 237.326 21.8135 235.545 22.3585L138.296 52.1171C137.859 52.2509 137.389 52.2309 136.965 52.0603L129.007 48.8606C127.257 48.157 127.365 45.6439 129.169 45.0924L226.752 15.2584Z" fill="#0EF893" fill-opacity="0.5"/>
<path d="M254.111 10.498C254.508 10.3731 254.934 10.3752 255.329 10.5039L258.609 11.5706C260.467 12.1749 260.445 14.8113 258.577 15.3845L243.938 19.8768C243.492 20.0136 243.012 19.9904 242.582 19.8112L239.866 18.68C238.143 17.9626 238.254 15.4857 240.034 14.9258L254.111 10.498Z" fill="#0EF893" fill-opacity="0.5"/>
<path d="M122.283 49.6517C122.716 48.6355 123.891 48.1627 124.907 48.5956L135.027 52.9067C136.043 53.3396 136.516 54.5143 136.083 55.5305L104.337 130.05C103.904 131.067 102.73 131.539 101.713 131.107L91.5934 126.795C90.5772 126.363 90.1043 125.188 90.5372 124.172L122.283 49.6517Z" fill="#0EF893" fill-opacity="0.5"/>
<path d="M21.0224 99.6517C21.4553 98.6355 22.63 98.1627 23.6462 98.5956L33.7662 102.907C34.7824 103.34 35.2552 104.514 34.8223 105.531L24.3372 130.143C23.9043 131.16 22.7296 131.632 21.7134 131.2L11.5934 126.888C10.5772 126.455 10.1043 125.281 10.5372 124.265L21.0224 99.6517Z" fill="#0EF893" fill-opacity="0.5"/>
<path d="M180.686 85.092C181.119 84.0758 182.293 83.6029 183.31 84.0359L193.43 88.347C194.446 88.7799 194.919 89.9546 194.486 90.9708L178.417 128.691C177.984 129.707 176.809 130.18 175.793 129.747L165.673 125.436C164.657 125.003 164.184 123.828 164.617 122.812L180.686 85.092Z" fill="#0EF893" fill-opacity="0.5"/>
<path d="M212.753 109.812C213.858 109.812 214.753 110.707 214.753 111.812V122.812C214.753 123.916 213.858 124.812 212.753 124.812H172.753C171.649 124.812 170.753 123.916 170.753 122.812V111.812C170.753 110.707 171.649 109.812 172.753 109.812H212.753Z" fill="#0EF893" fill-opacity="0.5"/>
<path d="M175.753 114.812C176.858 114.812 177.753 115.707 177.753 116.812V127.812C177.753 128.916 176.858 129.812 175.753 129.812H141.753C140.649 129.812 139.753 128.916 139.753 127.812V116.812C139.753 115.707 140.649 114.812 141.753 114.812H175.753Z" fill="#0EF893" fill-opacity="0.5"/>
<path d="M137.753 109.812C138.858 109.812 139.753 110.707 139.753 111.812V122.812C139.753 123.916 138.858 124.812 137.753 124.812H99.7534C98.6488 124.812 97.7534 123.916 97.7534 122.812V111.812C97.7534 110.707 98.6488 109.812 99.7534 109.812H137.753Z" fill="#0EF893" fill-opacity="0.5"/>
<path d="M101.753 116.812C102.858 116.812 103.753 117.707 103.753 118.812V129.812C103.753 130.916 102.858 131.812 101.753 131.812H23.7534C22.6488 131.812 21.7534 130.916 21.7534 129.812V118.812C21.7534 117.707 22.6488 116.812 23.7534 116.812H101.753Z" fill="#0EF893" fill-opacity="0.5"/>
<path d="M67.6596 102.723C68.7642 102.723 69.6596 103.618 69.6596 104.723V105.723C69.6596 106.827 68.7642 107.723 67.6596 107.723H51.6596C50.555 107.723 49.6596 106.827 49.6596 105.723V104.723C49.6596 103.618 50.555 102.723 51.6596 102.723H67.6596Z" fill="#0EF893" fill-opacity="0.5"/>
<path d="M69.7958 103.405C70.4388 104.303 70.3301 105.667 69.553 106.452L69.3209 106.687C68.5438 107.472 67.3927 107.38 66.7497 106.482L60.754 98.1064C60.111 97.2083 60.2198 95.8438 60.9968 95.0588L61.2289 94.8244C62.006 94.0394 63.1572 94.1311 63.8001 95.0293L69.7958 103.405Z" fill="#0EF893" fill-opacity="0.5"/>
<path d="M69.7958 89.183C70.7757 88.6733 71.8798 89.1003 72.2619 90.1367L72.4823 90.7346C72.8643 91.771 72.3797 93.0244 71.3997 93.5341L62.9427 97.9332C61.9627 98.4429 60.8587 98.016 60.4766 96.9796L60.2562 96.3816C59.8741 95.3452 60.3588 94.0918 61.3388 93.5821L69.7958 89.183Z" fill="#0EF893" fill-opacity="0.5"/>
<path d="M148.766 136.854C149.529 136.045 150.806 136.013 151.608 136.783L159.667 144.524C160.458 145.284 160.489 146.539 159.737 147.338L154.082 153.342C153.319 154.151 152.043 154.183 151.241 153.413L143.182 145.672C142.391 144.912 142.359 143.657 143.111 142.858L148.766 136.854Z" fill="#0EF893" fill-opacity="0.5"/>
<path d="M160.425 136.282C161.187 135.472 162.464 135.44 163.266 136.211L171.325 143.952C172.116 144.711 172.148 145.967 171.395 146.765L165.74 152.769C164.978 153.579 163.701 153.611 162.899 152.84L154.84 145.1C154.049 144.34 154.018 143.084 154.77 142.286L160.425 136.282Z" fill="#0EF893" fill-opacity="0.5"/>
</g>
<g filter="url(#filter1_f_4_29)">
<path d="M236.283 43.6517C236.716 42.6355 237.891 42.1627 238.907 42.5956L249.027 46.9067C250.043 47.3396 250.516 48.5143 250.083 49.5305L218.337 124.05C217.904 125.067 216.73 125.539 215.713 125.107L205.593 120.795C204.577 120.363 204.104 119.188 204.537 118.172L236.283 43.6517Z" fill="#5AB1BB" fill-opacity="0.5"/>
<path d="M164.283 49.6517C164.716 48.6355 165.891 48.1627 166.907 48.5956L177.027 52.9067C178.043 53.3396 178.516 54.5143 178.083 55.5305L146.628 129.367C146.196 130.383 145.021 130.856 144.005 130.423L133.885 126.112C132.868 125.679 132.396 124.504 132.828 123.488L164.283 49.6517Z" fill="#5AB1BB" fill-opacity="0.5"/>
<path d="M268.752 15.2584C269.204 15.12 269.691 15.1466 270.126 15.3334L277.749 18.6085C279.46 19.3437 279.326 21.8135 277.545 22.3585L180.296 52.1171C179.859 52.2509 179.389 52.2309 178.965 52.0603L171.007 48.8606C169.257 48.157 169.365 45.6439 171.169 45.0924L268.752 15.2584Z" fill="#5AB1BB" fill-opacity="0.5"/>
<path d="M229.752 16.2584C230.204 16.12 230.691 16.1466 231.126 16.3334L238.749 19.6085C240.46 20.3437 240.326 22.8135 238.545 23.3585L141.296 53.1171C140.859 53.2509 140.389 53.2309 139.965 53.0603L132.007 49.8606C130.257 49.157 130.365 46.6439 132.169 46.0924L229.752 16.2584Z" fill="#5AB1BB" fill-opacity="0.5"/>
<path d="M257.111 11.498C257.508 11.3731 257.934 11.3752 258.329 11.5039L261.609 12.5706C263.467 13.1749 263.445 15.8113 261.577 16.3845L246.938 20.8768C246.492 21.0136 246.012 20.9904 245.582 20.8112L242.866 19.68C241.143 18.9626 241.254 16.4857 243.034 15.9258L257.111 11.498Z" fill="#5AB1BB" fill-opacity="0.5"/>
<path d="M125.283 50.6517C125.716 49.6355 126.891 49.1627 127.907 49.5956L138.027 53.9067C139.043 54.3396 139.516 55.5143 139.083 56.5305L107.337 131.05C106.904 132.067 105.73 132.539 104.713 132.107L94.5934 127.795C93.5772 127.363 93.1043 126.188 93.5372 125.172L125.283 50.6517Z" fill="#5AB1BB" fill-opacity="0.5"/>
<path d="M24.0224 100.652C24.4553 99.6355 25.63 99.1627 26.6462 99.5956L36.7662 103.907C37.7824 104.34 38.2552 105.514 37.8223 106.531L27.3372 131.143C26.9043 132.16 25.7296 132.632 24.7134 132.2L14.5934 127.888C13.5772 127.455 13.1043 126.281 13.5372 125.265L24.0224 100.652Z" fill="#5AB1BB" fill-opacity="0.5"/>
<path d="M183.686 86.092C184.119 85.0758 185.293 84.6029 186.31 85.0359L196.43 89.347C197.446 89.7799 197.919 90.9546 197.486 91.9708L181.417 129.691C180.984 130.707 179.809 131.18 178.793 130.747L168.673 126.436C167.657 126.003 167.184 124.828 167.617 123.812L183.686 86.092Z" fill="#5AB1BB" fill-opacity="0.5"/>
<path d="M215.753 110.812C216.858 110.812 217.753 111.707 217.753 112.812V123.812C217.753 124.916 216.858 125.812 215.753 125.812H175.753C174.649 125.812 173.753 124.916 173.753 123.812V112.812C173.753 111.707 174.649 110.812 175.753 110.812H215.753Z" fill="#5AB1BB" fill-opacity="0.5"/>
<path d="M178.753 115.812C179.858 115.812 180.753 116.707 180.753 117.812V128.812C180.753 129.916 179.858 130.812 178.753 130.812H144.753C143.649 130.812 142.753 129.916 142.753 128.812V117.812C142.753 116.707 143.649 115.812 144.753 115.812H178.753Z" fill="#5AB1BB" fill-opacity="0.5"/>
<path d="M140.753 110.812C141.858 110.812 142.753 111.707 142.753 112.812V123.812C142.753 124.916 141.858 125.812 140.753 125.812H102.753C101.649 125.812 100.753 124.916 100.753 123.812V112.812C100.753 111.707 101.649 110.812 102.753 110.812H140.753Z" fill="#5AB1BB" fill-opacity="0.5"/>
<path d="M104.753 117.812C105.858 117.812 106.753 118.707 106.753 119.812V130.812C106.753 131.916 105.858 132.812 104.753 132.812H26.7534C25.6488 132.812 24.7534 131.916 24.7534 130.812V119.812C24.7534 118.707 25.6488 117.812 26.7534 117.812H104.753Z" fill="#5AB1BB" fill-opacity="0.5"/>
<path d="M69.7534 101.812C70.858 101.812 71.7534 102.707 71.7534 103.812V104.812C71.7534 105.916 70.858 106.812 69.7534 106.812H53.7534C52.6488 106.812 51.7534 105.916 51.7534 104.812V103.812C51.7534 102.707 52.6488 101.812 53.7534 101.812H69.7534Z" fill="#5AB1BB" fill-opacity="0.5"/>
<path d="M71.537 102.906C72.1799 103.804 71.7879 105.582 71.0109 106.367C70.2338 107.152 68.8767 106.187 68.3767 105.906L64.0208 99.4792C63.3779 98.581 63.4866 97.2166 64.2637 96.4316V94.9059C65.0408 94.1209 66.424 95.5039 67.067 96.402L71.537 102.906Z" fill="#5AB1BB" fill-opacity="0.5"/>
<path d="M71.5917 88.3448C72.5717 87.835 73.6757 88.262 74.0578 89.2984L74.2782 89.8964C74.6602 90.9328 74.1756 92.1862 73.1956 92.6959L64.2637 96.4316C63.2838 96.9413 62.6546 97.1777 62.2725 96.1413L62.0521 95.5433C61.6701 94.5069 62.1547 93.2536 63.1347 92.7438L71.5917 88.3448Z" fill="#5AB1BB" fill-opacity="0.5"/>
<path d="M151.766 137.854C152.529 137.045 153.806 137.013 154.608 137.783L162.667 145.524C163.458 146.284 163.489 147.539 162.737 148.338L157.082 154.342C156.319 155.151 155.043 155.183 154.241 154.413L146.182 146.672C145.391 145.912 145.359 144.657 146.111 143.858L151.766 137.854Z" fill="#5AB1BB" fill-opacity="0.5"/>
<path d="M163.425 137.282C164.187 136.472 165.464 136.44 166.266 137.211L174.325 144.952C175.116 145.711 175.148 146.967 174.395 147.765L168.74 153.769C167.978 154.579 166.701 154.611 165.899 153.84L157.84 146.1C157.049 145.34 157.018 144.084 157.77 143.286L163.425 137.282Z" fill="#5AB1BB" fill-opacity="0.5"/>
</g>
<g filter="url(#filter2_f_4_29)">
<path d="M236.283 43.6517C236.716 42.6355 237.891 42.1627 238.907 42.5956L249.027 46.9067C250.043 47.3396 250.516 48.5143 250.083 49.5305L218.337 124.05C217.904 125.067 216.73 125.539 215.713 125.107L205.593 120.795C204.577 120.363 204.104 119.188 204.537 118.172L236.283 43.6517Z" fill="#5AB1BB"/>
<path d="M164.283 49.6517C164.716 48.6355 165.891 48.1627 166.907 48.5956L177.027 52.9067C178.043 53.3396 178.516 54.5143 178.083 55.5305L146.628 129.367C146.196 130.383 145.021 130.856 144.005 130.423L133.885 126.112C132.868 125.679 132.396 124.504 132.828 123.488L164.283 49.6517Z" fill="#5AB1BB"/>
<path d="M268.752 15.2584C269.204 15.12 269.691 15.1466 270.126 15.3334L277.749 18.6085C279.46 19.3437 279.326 21.8135 277.545 22.3585L180.296 52.1171C179.859 52.2509 179.389 52.2309 178.965 52.0603L171.007 48.8606C169.257 48.157 169.365 45.6439 171.169 45.0924L268.752 15.2584Z" fill="#5AB1BB"/>
<path d="M229.752 16.2584C230.204 16.12 230.691 16.1466 231.126 16.3334L238.749 19.6085C240.46 20.3437 240.326 22.8135 238.545 23.3585L141.296 53.1171C140.859 53.2509 140.389 53.2309 139.965 53.0603L132.007 49.8606C130.257 49.157 130.365 46.6439 132.169 46.0924L229.752 16.2584Z" fill="#5AB1BB"/>
<path d="M257.111 11.498C257.508 11.3731 257.934 11.3752 258.329 11.5039L261.609 12.5706C263.467 13.1749 263.445 15.8113 261.577 16.3845L246.938 20.8768C246.492 21.0136 246.012 20.9904 245.582 20.8112L242.866 19.68C241.143 18.9626 241.254 16.4857 243.034 15.9258L257.111 11.498Z" fill="#5AB1BB"/>
<path d="M125.283 50.6517C125.716 49.6355 126.891 49.1627 127.907 49.5956L138.027 53.9067C139.043 54.3396 139.516 55.5143 139.083 56.5305L107.337 131.05C106.904 132.067 105.73 132.539 104.713 132.107L94.5934 127.795C93.5772 127.363 93.1043 126.188 93.5372 125.172L125.283 50.6517Z" fill="#5AB1BB"/>
<path d="M24.0224 100.652C24.4553 99.6355 25.63 99.1627 26.6462 99.5956L36.7662 103.907C37.7824 104.34 38.2552 105.514 37.8223 106.531L27.3372 131.143C26.9043 132.16 25.7296 132.632 24.7134 132.2L14.5934 127.888C13.5772 127.455 13.1043 126.281 13.5372 125.265L24.0224 100.652Z" fill="#5AB1BB"/>
<path d="M183.686 86.092C184.119 85.0758 185.293 84.6029 186.31 85.0359L196.43 89.347C197.446 89.7799 197.919 90.9546 197.486 91.9708L181.417 129.691C180.984 130.707 179.809 131.18 178.793 130.747L168.673 126.436C167.657 126.003 167.184 124.828 167.617 123.812L183.686 86.092Z" fill="#5AB1BB"/>
<path d="M215.753 110.812C216.858 110.812 217.753 111.707 217.753 112.812V123.812C217.753 124.916 216.858 125.812 215.753 125.812H175.753C174.649 125.812 173.753 124.916 173.753 123.812V112.812C173.753 111.707 174.649 110.812 175.753 110.812H215.753Z" fill="#5AB1BB"/>
<path d="M178.753 115.812C179.858 115.812 180.753 116.707 180.753 117.812V128.812C180.753 129.916 179.858 130.812 178.753 130.812H144.753C143.649 130.812 142.753 129.916 142.753 128.812V117.812C142.753 116.707 143.649 115.812 144.753 115.812H178.753Z" fill="#5AB1BB"/>
<path d="M140.753 110.812C141.858 110.812 142.753 111.707 142.753 112.812V123.812C142.753 124.916 141.858 125.812 140.753 125.812H102.753C101.649 125.812 100.753 124.916 100.753 123.812V112.812C100.753 111.707 101.649 110.812 102.753 110.812H140.753Z" fill="#5AB1BB"/>
<path d="M104.753 117.812C105.858 117.812 106.753 118.707 106.753 119.812V130.812C106.753 131.916 105.858 132.812 104.753 132.812H26.7534C25.6488 132.812 24.7534 131.916 24.7534 130.812V119.812C24.7534 118.707 25.6488 117.812 26.7534 117.812H104.753Z" fill="#5AB1BB"/>
<path d="M69.7534 101.812C70.858 101.812 71.7534 102.707 71.7534 103.812V104.812C71.7534 105.916 70.858 106.812 69.7534 106.812H53.7534C52.6488 106.812 51.7534 105.916 51.7534 104.812V103.812C51.7534 102.707 52.6488 101.812 53.7534 101.812H69.7534Z" fill="#5AB1BB"/>
<path d="M71.537 102.906C72.1799 103.804 71.7879 105.582 71.0109 106.367C70.2338 107.152 68.8767 106.187 68.3767 105.906L64.0208 99.4792C63.3779 98.581 63.4866 97.2166 64.2637 96.4316V94.9059C65.0408 94.1209 66.424 95.5039 67.067 96.402L71.537 102.906Z" fill="#5AB1BB"/>
<path d="M71.5917 88.3448C72.5717 87.835 73.6757 88.262 74.0578 89.2984L74.2782 89.8964C74.6602 90.9328 74.1756 92.1862 73.1956 92.6959L64.2637 96.4316C63.2838 96.9413 62.6546 97.1777 62.2725 96.1413L62.0521 95.5433C61.6701 94.5069 62.1547 93.2536 63.1347 92.7438L71.5917 88.3448Z" fill="#5AB1BB"/>
<path d="M151.766 137.854C152.529 137.045 153.806 137.013 154.608 137.783L162.667 145.524C163.458 146.284 163.489 147.539 162.737 148.338L157.082 154.342C156.319 155.151 155.043 155.183 154.241 154.413L146.182 146.672C145.391 145.912 145.359 144.657 146.111 143.858L151.766 137.854Z" fill="#5AB1BB"/>
<path d="M163.425 137.282C164.187 136.472 165.464 136.44 166.266 137.211L174.325 144.952C175.116 145.711 175.148 146.967 174.395 147.765L168.74 153.769C167.978 154.579 166.701 154.611 165.899 153.84L157.84 146.1C157.049 145.34 157.018 144.084 157.77 143.286L163.425 137.282Z" fill="#5AB1BB"/>
</g>
<g filter="url(#filter3_f_4_29)">
<path d="M233.283 40.6517C233.716 39.6355 234.891 39.1627 235.907 39.5956L246.027 43.9067C247.043 44.3396 247.516 45.5143 247.083 46.5305L215.337 121.05C214.904 122.067 213.73 122.539 212.713 122.107L202.593 117.795C201.577 117.363 201.104 116.188 201.537 115.172L233.283 40.6517Z" fill="#839E68"/>
<path d="M161.283 46.6517C161.716 45.6355 162.891 45.1627 163.907 45.5956L174.027 49.9067C175.043 50.3396 175.516 51.5143 175.083 52.5305L143.628 126.367C143.196 127.383 142.021 127.856 141.005 127.423L130.885 123.112C129.868 122.679 129.396 121.504 129.828 120.488L161.283 46.6517Z" fill="#839E68"/>
<path d="M265.752 12.2584C266.204 12.12 266.691 12.1466 267.126 12.3334L274.749 15.6085C276.46 16.3437 276.326 18.8135 274.545 19.3585L177.296 49.1171C176.859 49.2509 176.389 49.2309 175.965 49.0603L168.007 45.8606C166.257 45.157 166.365 42.6439 168.169 42.0924L265.752 12.2584Z" fill="#839E68"/>
<path d="M226.752 13.2584C227.204 13.12 227.691 13.1466 228.126 13.3334L235.749 16.6085C237.46 17.3437 237.326 19.8135 235.545 20.3585L138.296 50.1171C137.859 50.2509 137.389 50.2309 136.965 50.0603L129.007 46.8606C127.257 46.157 127.365 43.6439 129.169 43.0924L226.752 13.2584Z" fill="#839E68"/>
<path d="M254.111 8.49801C254.508 8.37315 254.934 8.37521 255.329 8.50392L258.609 9.5706C260.467 10.1749 260.445 12.8113 258.577 13.3845L243.938 17.8768C243.492 18.0136 243.012 17.9904 242.582 17.8112L239.866 16.68C238.143 15.9626 238.254 13.4857 240.034 12.9258L254.111 8.49801Z" fill="#839E68"/>
<path d="M122.283 47.6517C122.716 46.6355 123.891 46.1627 124.907 46.5956L135.027 50.9067C136.043 51.3396 136.516 52.5143 136.083 53.5305L104.337 128.05C103.904 129.067 102.73 129.539 101.713 129.107L91.5934 124.795C90.5772 124.363 90.1043 123.188 90.5372 122.172L122.283 47.6517Z" fill="#839E68"/>
<path d="M21.0224 97.6517C21.4553 96.6355 22.63 96.1627 23.6462 96.5956L33.7662 100.907C34.7824 101.34 35.2552 102.514 34.8223 103.531L24.3372 128.143C23.9043 129.16 22.7296 129.632 21.7134 129.2L11.5934 124.888C10.5772 124.455 10.1043 123.281 10.5372 122.265L21.0224 97.6517Z" fill="#839E68"/>
<path d="M180.686 83.092C181.119 82.0758 182.293 81.6029 183.31 82.0359L193.43 86.347C194.446 86.7799 194.919 87.9546 194.486 88.9708L178.417 126.691C177.984 127.707 176.809 128.18 175.793 127.747L165.673 123.436C164.657 123.003 164.184 121.828 164.617 120.812L180.686 83.092Z" fill="#839E68"/>
<path d="M212.753 107.812C213.858 107.812 214.753 108.707 214.753 109.812V120.812C214.753 121.916 213.858 122.812 212.753 122.812H172.753C171.649 122.812 170.753 121.916 170.753 120.812V109.812C170.753 108.707 171.649 107.812 172.753 107.812H212.753Z" fill="#839E68"/>
<path d="M175.753 112.812C176.858 112.812 177.753 113.707 177.753 114.812V125.812C177.753 126.916 176.858 127.812 175.753 127.812H141.753C140.649 127.812 139.753 126.916 139.753 125.812V114.812C139.753 113.707 140.649 112.812 141.753 112.812H175.753Z" fill="#839E68"/>
<path d="M137.753 107.812C138.858 107.812 139.753 108.707 139.753 109.812V120.812C139.753 121.916 138.858 122.812 137.753 122.812H99.7534C98.6488 122.812 97.7534 121.916 97.7534 120.812V109.812C97.7534 108.707 98.6488 107.812 99.7534 107.812H137.753Z" fill="#839E68"/>
<path d="M101.753 114.812C102.858 114.812 103.753 115.707 103.753 116.812V127.812C103.753 128.916 102.858 129.812 101.753 129.812H23.7534C22.6488 129.812 21.7534 128.916 21.7534 127.812V116.812C21.7534 115.707 22.6488 114.812 23.7534 114.812H101.753Z" fill="#839E68"/>
<path d="M67.6596 100.723C68.7642 100.723 69.6596 101.618 69.6596 102.723V103.723C69.6596 104.827 68.7642 105.723 67.6596 105.723H51.6596C50.555 105.723 49.6596 104.827 49.6596 103.723V102.723C49.6596 101.618 50.555 100.723 51.6596 100.723H67.6596Z" fill="#839E68"/>
<path d="M69.7958 101.405C70.4388 102.303 70.3301 103.667 69.553 104.452L69.3209 104.687C68.5438 105.472 67.3927 105.38 66.7497 104.482L60.754 96.1064C60.111 95.2083 60.2198 93.8438 60.9968 93.0588L61.2289 92.8244C62.006 92.0394 63.1572 92.1311 63.8001 93.0293L69.7958 101.405Z" fill="#839E68"/>
<path d="M69.7958 87.183C70.7757 86.6733 71.8798 87.1003 72.2619 88.1367L72.4823 88.7346C72.8643 89.771 72.3797 91.0244 71.3997 91.5341L62.9427 95.9332C61.9627 96.4429 60.8587 96.016 60.4766 94.9796L60.2562 94.3816C59.8741 93.3452 60.3588 92.0918 61.3388 91.5821L69.7958 87.183Z" fill="#839E68"/>
<path d="M148.766 134.854C149.529 134.045 150.806 134.013 151.608 134.783L159.667 142.524C160.458 143.284 160.489 144.539 159.737 145.338L154.082 151.342C153.319 152.151 152.043 152.183 151.241 151.413L143.182 143.672C142.391 142.912 142.359 141.657 143.111 140.858L148.766 134.854Z" fill="#839E68"/>
<path d="M160.425 134.282C161.187 133.472 162.464 133.44 163.266 134.211L171.325 141.952C172.116 142.711 172.148 143.967 171.395 144.765L165.74 150.769C164.978 151.579 163.701 151.611 162.899 150.84L154.84 143.1C154.049 142.34 154.018 141.084 154.77 140.286L160.425 134.282Z" fill="#839E68"/>
</g>
<path d="M229.906 38.2459C230.339 37.2297 231.514 36.7568 232.53 37.1897L242.65 41.5008C243.666 41.9337 244.139 43.1085 243.706 44.1247L211.961 118.645C211.528 119.661 210.353 120.134 209.337 119.701L199.217 115.39C198.2 114.957 197.728 113.782 198.161 112.766L229.906 38.2459Z" fill="#D9D9D9"/>
<path d="M157.906 44.2459C158.339 43.2297 159.514 42.7568 160.53 43.1897L170.65 47.5008C171.666 47.9337 172.139 49.1085 171.706 50.1247L140.252 123.961C139.819 124.977 138.644 125.45 137.628 125.017L127.508 120.706C126.492 120.273 126.019 119.098 126.452 118.082L157.906 44.2459Z" fill="#D9D9D9"/>
<path d="M262.375 9.85252C262.827 9.71417 263.314 9.74076 263.749 9.92755L271.372 13.2026C273.083 13.9379 272.949 16.4076 271.168 16.9527L173.92 46.7113C173.483 46.8451 173.013 46.825 172.588 46.6544L164.631 43.4548C162.881 42.7511 162.988 40.2381 164.792 39.6866L262.375 9.85252Z" fill="#D9D9D9"/>
<path d="M223.375 10.8525C223.827 10.7142 224.314 10.7408 224.749 10.9276L232.372 14.2026C234.083 14.9379 233.949 17.4076 232.168 17.9527L134.92 47.7113C134.483 47.8451 134.013 47.825 133.588 47.6544L125.631 44.4548C123.881 43.7511 123.988 41.2381 125.792 40.6866L223.375 10.8525Z" fill="#D9D9D9"/>
<path d="M250.734 6.09216C251.131 5.96729 251.557 5.96936 251.953 6.09807L255.232 7.16475C257.09 7.76909 257.068 10.4055 255.2 10.9787L240.561 15.471C240.115 15.6078 239.636 15.5845 239.205 15.4053L236.489 14.2741C234.766 13.5568 234.878 11.0799 236.658 10.52L250.734 6.09216Z" fill="#D9D9D9"/>
<path d="M118.906 45.2459C119.339 44.2297 120.514 43.7568 121.53 44.1897L131.65 48.5008C132.666 48.9337 133.139 50.1085 132.706 51.1247L100.961 125.645C100.528 126.661 99.3529 127.134 98.3367 126.701L88.2167 122.39C87.2005 121.957 86.7276 120.782 87.1605 119.766L118.906 45.2459Z" fill="#D9D9D9"/>
<path d="M17.6456 95.2459C18.0786 94.2297 19.2533 93.7568 20.2695 94.1897L30.3895 98.5008C31.4057 98.9337 31.8785 100.108 31.4456 101.125L20.9605 125.738C20.5276 126.754 19.3529 127.227 18.3367 126.794L8.21667 122.483C7.20047 122.05 6.72761 120.875 7.16052 119.859L17.6456 95.2459Z" fill="#D9D9D9"/>
<path d="M177.309 80.6861C177.742 79.6699 178.917 79.1971 179.933 79.63L190.053 83.9411C191.069 84.374 191.542 85.5488 191.109 86.565L175.04 124.285C174.607 125.301 173.433 125.774 172.416 125.341L162.296 121.03C161.28 120.597 160.807 119.422 161.24 118.406L177.309 80.6861Z" fill="#D9D9D9"/>
<path d="M209.377 105.406C210.481 105.406 211.377 106.301 211.377 107.406V118.406C211.377 119.51 210.481 120.406 209.377 120.406H169.377C168.272 120.406 167.377 119.51 167.377 118.406V107.406C167.377 106.301 168.272 105.406 169.377 105.406H209.377Z" fill="#D9D9D9"/>
<path d="M172.377 110.406C173.481 110.406 174.377 111.301 174.377 112.406V123.406C174.377 124.51 173.481 125.406 172.377 125.406H138.377C137.272 125.406 136.377 124.51 136.377 123.406V112.406C136.377 111.301 137.272 110.406 138.377 110.406H172.377Z" fill="#D9D9D9"/>
<path d="M134.377 105.406C135.481 105.406 136.377 106.301 136.377 107.406V118.406C136.377 119.51 135.481 120.406 134.377 120.406H96.3767C95.2721 120.406 94.3767 119.51 94.3767 118.406V107.406C94.3767 106.301 95.2721 105.406 96.3767 105.406H134.377Z" fill="#D9D9D9"/>
<path d="M98.3767 112.406C99.4812 112.406 100.377 113.301 100.377 114.406V125.406C100.377 126.51 99.4812 127.406 98.3767 127.406H20.3767C19.2721 127.406 18.3767 126.51 18.3767 125.406V114.406C18.3767 113.301 19.2721 112.406 20.3767 112.406H98.3767Z" fill="#D9D9D9"/>
<path d="M65.3767 99.4059C66.4812 99.4059 67.3767 100.301 67.3767 101.406V102.406C67.3767 103.51 66.4812 104.406 65.3767 104.406H49.3767C48.2721 104.406 47.3767 103.51 47.3767 102.406V101.406C47.3767 100.301 48.2721 99.4059 49.3767 99.4059H65.3767Z" fill="#D9D9D9"/>
<path d="M67.1608 100.035C67.8038 100.933 67.6951 102.297 66.918 103.082L66.6859 103.317C65.9089 104.102 64.7577 104.01 64.1147 103.112L58.119 94.7367C57.4761 93.8386 57.5848 92.4741 58.3619 91.6891L58.5939 91.4547C59.371 90.6697 60.5222 90.7614 61.1652 91.6595L67.1608 100.035Z" fill="#D9D9D9"/>
<path d="M68.023 86.3288C69.0029 85.8191 70.107 86.246 70.4891 87.2824L70.7095 87.8804C71.0915 88.9168 70.6069 90.1702 69.6269 90.6799L61.1699 95.079C60.1899 95.5887 59.0859 95.1618 58.7038 94.1254L58.4834 93.5274C58.1014 92.491 58.586 91.2376 59.566 90.7279L68.023 86.3288Z" fill="#D9D9D9"/>
<path d="M145.39 132.448C146.152 131.639 147.429 131.607 148.231 132.377L156.29 140.118C157.081 140.878 157.112 142.133 156.36 142.932L150.705 148.936C149.943 149.745 148.666 149.777 147.864 149.007L139.805 141.266C139.014 140.506 138.982 139.251 139.735 138.452L145.39 132.448Z" fill="#D9D9D9"/>
<path d="M157.048 131.876C157.811 131.066 159.087 131.034 159.889 131.805L167.948 139.546C168.739 140.306 168.771 141.561 168.019 142.359L162.364 148.363C161.601 149.173 160.324 149.205 159.522 148.435L151.463 140.694C150.672 139.934 150.641 138.679 151.393 137.88L157.048 131.876Z" fill="#D9D9D9"/>
<defs>
<filter id="filter0_f_4_29" x="0.376709" y="0.405853" width="285.583" height="163.564" filterUnits="userSpaceOnUse" color-interpolation-filters="sRGB">
<feFlood flood-opacity="0" result="BackgroundImageFix"/>
<feBlend mode="normal" in="SourceGraphic" in2="BackgroundImageFix" result="shape"/>
<feGaussianBlur stdDeviation="5" result="effect1_foregroundBlur_4_29"/>
</filter>
<filter id="filter1_f_4_29" x="3.37671" y="1.40585" width="285.583" height="163.564" filterUnits="userSpaceOnUse" color-interpolation-filters="sRGB">
<feFlood flood-opacity="0" result="BackgroundImageFix"/>
<feBlend mode="normal" in="SourceGraphic" in2="BackgroundImageFix" result="shape"/>
<feGaussianBlur stdDeviation="5" result="effect1_foregroundBlur_4_29"/>
</filter>
<filter id="filter2_f_4_29" x="11.3767" y="9.40585" width="269.583" height="147.564" filterUnits="userSpaceOnUse" color-interpolation-filters="sRGB">
<feFlood flood-opacity="0" result="BackgroundImageFix"/>
<feBlend mode="normal" in="SourceGraphic" in2="BackgroundImageFix" result="shape"/>
<feGaussianBlur stdDeviation="1" result="effect1_foregroundBlur_4_29"/>
</filter>
<filter id="filter3_f_4_29" x="8.37671" y="6.40585" width="269.583" height="147.564" filterUnits="userSpaceOnUse" color-interpolation-filters="sRGB">
<feFlood flood-opacity="0" result="BackgroundImageFix"/>
<feBlend mode="normal" in="SourceGraphic" in2="BackgroundImageFix" result="shape"/>
<feGaussianBlur stdDeviation="1" result="effect1_foregroundBlur_4_29"/>
</filter>
</defs>
</svg>
