<svg width="414" height="164" viewBox="0 0 414 164" fill="none" xmlns="http://www.w3.org/2000/svg">
<path fill-rule="evenodd" clip-rule="evenodd" d="M413.139 32.8C413.139 14.6851 398.441 0 380.311 0H281.828C263.698 0 249 14.6851 249 32.8V131.2C249 149.315 263.698 164 281.828 164H380.311C398.441 164 413.139 149.315 413.139 131.2V32.8ZM259.943 76.5335C259.943 58.4184 274.64 43.7335 292.77 43.7335H369.368C387.499 43.7335 402.196 58.4184 402.196 76.5335V87.4665C402.196 105.582 387.499 120.267 369.368 120.267H292.77C274.64 120.267 259.943 105.582 259.943 87.4665V76.5335ZM34.9221 110.8C34.1924 110.8 33.828 110.436 33.828 109.707V63.7865C33.828 63.058 34.1924 62.6935 34.9221 62.6935H46.5651C47.2944 62.6935 47.6592 63.058 47.6592 63.7865V109.707C47.6592 110.436 47.2944 110.8 46.5651 110.8H34.9221ZM34.7034 59.0633C34.1198 59.0633 33.828 58.7718 33.828 58.1888V52.6345C33.828 52.0515 34.1198 51.76 34.7034 51.76H46.8712C47.3966 51.76 47.6592 52.0515 47.6592 52.6345V58.1888C47.6592 58.7718 47.3966 59.0633 46.8712 59.0633H34.7034ZM1.23938 110.8C0.510132 110.8 0.145264 110.436 0.145264 109.707V53.5968C0.145264 52.8678 0.510132 52.5033 1.23938 52.5033H13.6265C14.3561 52.5033 14.7206 52.8678 14.7206 53.5968V99.1232H25.7507C26.4805 99.1232 26.8453 99.4877 26.8453 100.217V109.707C26.8453 110.436 26.4805 110.8 25.7507 110.8H1.23938ZM69.0991 124.27C69.0991 124.999 69.4639 125.363 70.1932 125.363H77.3278C77.824 125.363 78.1741 125.319 78.3784 125.232C78.6119 125.174 78.9473 125.057 79.3851 124.882L86.7385 121.821L92.5602 118.103C93.0559 117.724 93.3042 117.141 93.3042 116.354V63.7865C93.3042 63.058 92.9393 62.6935 92.2097 62.6935H68.7928C68.1215 62.6935 67.5378 62.9411 67.0421 63.4368L58.2881 72.1833C57.7919 72.6499 57.5439 73.2329 57.5439 73.9328V98.2487C57.5439 98.9481 57.7919 99.5316 58.2881 99.9977L66.298 108.045C66.7938 108.511 67.3774 108.745 68.0488 108.745L75.4895 108.482C76.1605 108.482 76.7441 108.234 77.2404 107.739L81.3547 103.934V111.106C81.3547 111.777 81.136 112.228 80.6985 112.462L76.1462 114.867L69.7557 116.485C69.3177 116.544 69.0991 116.864 69.0991 117.447V124.27ZM76.9777 99.2983H73.9139C72.9508 99.2983 72.2946 99.1084 71.944 98.7296C71.594 98.3508 71.4191 97.68 71.4191 96.7177V75.4633C71.4191 74.5015 71.594 73.8307 71.944 73.4519C72.2946 73.0726 72.9508 72.8832 73.9139 72.8832H79.4291V96.7177C79.4291 97.68 79.2539 98.3508 78.9038 98.7296C78.5537 99.1084 77.9114 99.2983 76.9777 99.2983ZM114.249 111.107C113.578 111.107 112.994 110.859 112.498 110.363L103.744 101.616C103.248 101.15 103 100.567 103 99.8672V74.2393C103 73.5395 103.248 72.9564 103.744 72.4899L112.498 63.7433C112.994 63.2476 113.578 63 114.249 63H137.666C138.396 63 138.761 63.3645 138.761 64.093V110.013C138.761 110.742 138.396 111.107 137.666 111.107H128.562C128.183 111.107 127.891 111.034 127.687 110.888C127.596 110.813 127.498 110.73 127.393 110.639C127.332 110.587 127.269 110.533 127.203 110.476L127.074 110.363L124.885 108.176L122.697 110.363C122.23 110.859 121.646 111.107 120.946 111.107H114.249ZM119.37 100.917H122.434C123.368 100.917 124.01 100.727 124.36 100.348C124.71 99.9693 124.885 99.2985 124.885 98.3363V73.1897H119.37C118.407 73.1897 117.75 73.3792 117.401 73.7584C117.05 74.1372 116.875 74.808 116.875 75.7699V98.3363C116.875 99.2985 117.05 99.9693 117.401 100.348C117.75 100.727 118.407 100.917 119.37 100.917ZM158.651 110.057C159.117 110.552 159.701 110.8 160.401 110.8H183.819C184.548 110.8 184.913 110.436 184.913 109.707V63.7865C184.913 63.058 184.548 62.6935 183.819 62.6935H172.132C171.402 62.6935 171.038 63.058 171.038 63.7865V99.8665H165.041C163.699 99.8665 163.028 99.1814 163.028 97.8112V63.7865C163.028 63.058 162.663 62.6935 161.933 62.6935H150.247C149.517 62.6935 149.153 63.058 149.153 63.7865V99.5607C149.153 100.26 149.401 100.844 149.897 101.31L158.651 110.057ZM219.438 110.8C219.059 110.8 218.752 110.742 218.519 110.625C218.314 110.508 218.183 110.348 218.125 110.144L213.091 90.3328H209.021V109.707C209.021 110.436 208.656 110.8 207.926 110.8H196.24C195.51 110.8 195.146 110.436 195.146 109.707V53.5968C195.146 52.8678 195.51 52.5033 196.24 52.5033H207.926C208.656 52.5033 209.021 52.8678 209.021 53.5968V79.8368H213.091L218.125 63.4368C218.183 63.2035 218.314 63.0432 218.519 62.9559C218.752 62.839 219.059 62.7808 219.438 62.7808H230.512C231.241 62.7808 231.606 63.1453 231.606 63.8743V68.5097C231.606 68.9181 231.577 69.2387 231.519 69.472C231.46 69.7053 231.373 69.9529 231.256 70.2153L224.778 85.1287V86.6153L231.606 103.365C231.752 103.686 231.854 103.978 231.913 104.24C231.971 104.473 232 104.736 232 105.027V109.707C232 110.436 231.635 110.8 230.906 110.8H219.438ZM319.032 82C319.032 94.0765 309.234 103.867 297.147 103.867C285.061 103.867 275.262 94.0765 275.262 82C275.262 69.9234 285.061 60.1335 297.147 60.1335C309.234 60.1335 319.032 69.9234 319.032 82ZM362.003 100.607C362.845 102.066 364.951 102.068 365.794 100.611L385.712 66.1867C386.555 64.7296 385.503 62.9067 383.818 62.9055L344.017 62.8727C342.332 62.8714 341.278 64.6927 342.119 66.151L362.003 100.607Z" fill="#5AB1BB"/>
</svg>
